<svg width="44" height="43" viewBox="0 0 44 43" fill="none" xmlns="http://www.w3.org/2000/svg">
<path d="M22 0C34.1501 0 43.9998 9.59699 44 21.4355C44 26.5929 42.13 31.3239 39.0152 35.022C37.3392 37.0119 34.3192 36.3937 33.0213 34.1389C32.0121 32.3855 32.4244 30.2015 33.5161 28.4983C34.828 26.4516 35.5869 24.0305 35.5869 21.4355C35.5867 14.0865 29.5035 8.12891 22 8.12891C14.4965 8.12891 8.41328 14.0865 8.41309 21.4355C8.41309 28.7848 14.4963 34.7432 22 34.7432C22.3244 34.7432 22.6287 34.9075 22.7905 35.1886L23.1855 35.875C23.2202 35.9353 23.2555 35.9951 23.2914 36.0543C24.5008 38.0539 24.337 42.8721 22 42.8721C9.84974 42.8721 0 33.2743 0 21.4355C0.000194658 9.59699 9.84986 0 22 0Z" fill="white"/>
<rect width="7.28527" height="16.2784" rx="3.64263" transform="matrix(0.76723 -0.641372 0.656991 0.753899 24.1035 29.9503)" fill="white"/>
<ellipse cx="23.0802" cy="23.2733" rx="4.32041" ry="4.2315" fill="white"/>
</svg>
